<mxfile host="app.diagrams.net" agent="Mozilla/5.0 (X11; Linux x86_64) AppleWebKit/537.36 (KHTML, like Gecko) Chrome/129.0.0.0 Safari/537.36" version="24.7.17">
  <diagram name="Sivu-1" id="ETxLBeFSpSedNPtnGMP7">
    <mxGraphModel dx="1195" dy="683" grid="1" gridSize="10" guides="1" tooltips="1" connect="1" arrows="1" fold="1" page="1" pageScale="1" pageWidth="827" pageHeight="1169" math="0" shadow="0">
      <root>
        <mxCell id="0" />
        <mxCell id="1" parent="0" />
        <mxCell id="Rc_dPTwu43_yxfsiKPEV-25" value="" style="group" vertex="1" connectable="0" parent="1">
          <mxGeometry x="50" y="50" width="430" height="290" as="geometry" />
        </mxCell>
        <mxCell id="Rc_dPTwu43_yxfsiKPEV-12" value="&lt;span style=&quot;font-size: 18px;&quot;&gt;v&lt;sub&gt;1&lt;/sub&gt;&lt;/span&gt;" style="ellipse;whiteSpace=wrap;html=1;aspect=fixed;" vertex="1" parent="Rc_dPTwu43_yxfsiKPEV-25">
          <mxGeometry width="92.27272727272728" height="92.27272727272728" as="geometry" />
        </mxCell>
        <mxCell id="Rc_dPTwu43_yxfsiKPEV-13" value="&lt;font style=&quot;font-size: 18px;&quot;&gt;v&lt;sub&gt;2&lt;/sub&gt;&lt;/font&gt;" style="ellipse;whiteSpace=wrap;html=1;aspect=fixed;" vertex="1" parent="Rc_dPTwu43_yxfsiKPEV-25">
          <mxGeometry x="329.66666666666663" width="92.27272727272728" height="92.27272727272728" as="geometry" />
        </mxCell>
        <mxCell id="Rc_dPTwu43_yxfsiKPEV-14" value="&lt;font style=&quot;font-size: 18px;&quot;&gt;v&lt;sub&gt;3&lt;/sub&gt;&lt;/font&gt;" style="ellipse;whiteSpace=wrap;html=1;aspect=fixed;" vertex="1" parent="Rc_dPTwu43_yxfsiKPEV-25">
          <mxGeometry x="329.66666666666663" y="197.72727272727275" width="92.27272727272728" height="92.27272727272728" as="geometry" />
        </mxCell>
        <mxCell id="Rc_dPTwu43_yxfsiKPEV-15" value="&lt;font style=&quot;font-size: 18px;&quot;&gt;v&lt;sub&gt;4&lt;/sub&gt;&lt;/font&gt;" style="ellipse;whiteSpace=wrap;html=1;aspect=fixed;" vertex="1" parent="Rc_dPTwu43_yxfsiKPEV-25">
          <mxGeometry y="197.72727272727275" width="92.27272727272728" height="92.27272727272728" as="geometry" />
        </mxCell>
        <mxCell id="Rc_dPTwu43_yxfsiKPEV-17" value="&lt;font style=&quot;font-size: 18px;&quot;&gt;a&lt;/font&gt;" style="endArrow=none;html=1;rounded=0;entryX=0;entryY=0.5;entryDx=0;entryDy=0;exitX=1;exitY=0.5;exitDx=0;exitDy=0;strokeWidth=2;" edge="1" parent="Rc_dPTwu43_yxfsiKPEV-25" source="Rc_dPTwu43_yxfsiKPEV-12" target="Rc_dPTwu43_yxfsiKPEV-13">
          <mxGeometry width="50" height="50" relative="1" as="geometry">
            <mxPoint x="358.33333333333326" y="263.6363636363637" as="sourcePoint" />
            <mxPoint x="430" y="197.72727272727275" as="targetPoint" />
          </mxGeometry>
        </mxCell>
        <mxCell id="Rc_dPTwu43_yxfsiKPEV-18" value="&lt;font style=&quot;font-size: 18px;&quot;&gt;d&lt;/font&gt;" style="endArrow=none;html=1;rounded=0;entryX=0;entryY=0.5;entryDx=0;entryDy=0;exitX=1;exitY=0.5;exitDx=0;exitDy=0;strokeWidth=2;" edge="1" parent="Rc_dPTwu43_yxfsiKPEV-25">
          <mxGeometry width="50" height="50" relative="1" as="geometry">
            <mxPoint x="100.33333333333331" y="250.00636363636366" as="sourcePoint" />
            <mxPoint x="329.66666666666663" y="250.00636363636366" as="targetPoint" />
          </mxGeometry>
        </mxCell>
        <mxCell id="Rc_dPTwu43_yxfsiKPEV-19" value="&lt;font style=&quot;font-size: 18px;&quot;&gt;c&lt;/font&gt;" style="endArrow=none;html=1;rounded=0;entryX=0.5;entryY=1;entryDx=0;entryDy=0;exitX=0.5;exitY=0;exitDx=0;exitDy=0;strokeWidth=2;" edge="1" parent="Rc_dPTwu43_yxfsiKPEV-25" source="Rc_dPTwu43_yxfsiKPEV-14" target="Rc_dPTwu43_yxfsiKPEV-13">
          <mxGeometry width="50" height="50" relative="1" as="geometry">
            <mxPoint x="114.66666666666666" y="263.1881818181818" as="sourcePoint" />
            <mxPoint x="344" y="263.1881818181818" as="targetPoint" />
          </mxGeometry>
        </mxCell>
        <mxCell id="Rc_dPTwu43_yxfsiKPEV-20" value="&lt;font style=&quot;font-size: 18px;&quot;&gt;b&lt;/font&gt;" style="endArrow=none;html=1;rounded=0;entryX=0;entryY=1;entryDx=0;entryDy=0;exitX=1;exitY=0;exitDx=0;exitDy=0;strokeWidth=2;" edge="1" parent="Rc_dPTwu43_yxfsiKPEV-25" source="Rc_dPTwu43_yxfsiKPEV-15" target="Rc_dPTwu43_yxfsiKPEV-13">
          <mxGeometry width="50" height="50" relative="1" as="geometry">
            <mxPoint x="401.33333333333326" y="210.9090909090909" as="sourcePoint" />
            <mxPoint x="401.33333333333326" y="105.45454545454545" as="targetPoint" />
          </mxGeometry>
        </mxCell>
      </root>
    </mxGraphModel>
  </diagram>
</mxfile>
